<svg data-v-28788e28="" data-v-489ca06a="" xmlns="http://www.w3.org/2000/svg" width="42" height="42" viewBox="0 0 42 42" class="seat s-disabled no-price animated-background" pos="0">
<g data-v-28788e28="" fill="none" fill-rule="evenodd">
<g data-v-28788e28="" class="svg-hide">
<path data-v-28788e28="" d="M8.625.5c-3.038 0-5.5 2.462-5.5 5.5v27.875c0 .828.672 1.5 1.5 1.5h32.75c.828 0 1.5-.672 1.5-1.5V6c0-3.038-2.462-5.5-5.5-5.5H8.625zM5.75 35.5V38c0 1.933 1.567 3.5 3.5 3.5h23.5c1.933 0 3.5-1.567 3.5-3.5v-2.5H5.75z"></path> 
<rect data-v-28788e28="" width="5.125" height="16.5" x=".5" y="13.625" rx="2.563"></rect> <rect data-v-28788e28="" width="5.125" height="16.5" x="36.375" y="13.625" rx="2.563"></rect>
</g>
</g> <!----></svg>